<svg id="visual" viewBox="0 0 960 300" width="960" height="300" xmlns="http://www.w3.org/2000/svg" xmlns:xlink="http://www.w3.org/1999/xlink" version="1.1"><rect x="0" y="0" width="960" height="300" fill="#D1C6C6"></rect><path d="M0 217L16 213.3C32 209.7 64 202.3 96 207.2C128 212 160 229 192 228.5C224 228 256 210 288 206.8C320 203.7 352 215.3 384 218.2C416 221 448 215 480 216.7C512 218.3 544 227.7 576 223.7C608 219.7 640 202.3 672 202.7C704 203 736 221 768 227.3C800 233.7 832 228.3 864 224C896 219.7 928 216.3 944 214.7L960 213L960 0L944 0C928 0 896 0 864 0C832 0 800 0 768 0C736 0 704 0 672 0C640 0 608 0 576 0C544 0 512 0 480 0C448 0 416 0 384 0C352 0 320 0 288 0C256 0 224 0 192 0C160 0 128 0 96 0C64 0 32 0 16 0L0 0Z" fill="#070a1a"></path><path d="M0 164L16 158.5C32 153 64 142 96 140C128 138 160 145 192 154.5C224 164 256 176 288 176.7C320 177.3 352 166.7 384 165.8C416 165 448 174 480 170.7C512 167.3 544 151.7 576 145.5C608 139.3 640 142.7 672 144.5C704 146.3 736 146.7 768 149.2C800 151.7 832 156.3 864 156.8C896 157.3 928 153.7 944 151.8L960 150L960 0L944 0C928 0 896 0 864 0C832 0 800 0 768 0C736 0 704 0 672 0C640 0 608 0 576 0C544 0 512 0 480 0C448 0 416 0 384 0C352 0 320 0 288 0C256 0 224 0 192 0C160 0 128 0 96 0C64 0 32 0 16 0L0 0Z" fill="#0f193b"></path><path d="M0 137L16 132C32 127 64 117 96 109.2C128 101.3 160 95.7 192 99.2C224 102.7 256 115.3 288 114.8C320 114.3 352 100.7 384 97.8C416 95 448 103 480 109.3C512 115.7 544 120.3 576 120.2C608 120 640 115 672 115.5C704 116 736 122 768 122.7C800 123.3 832 118.7 864 113.2C896 107.7 928 101.3 944 98.2L960 95L960 0L944 0C928 0 896 0 864 0C832 0 800 0 768 0C736 0 704 0 672 0C640 0 608 0 576 0C544 0 512 0 480 0C448 0 416 0 384 0C352 0 320 0 288 0C256 0 224 0 192 0C160 0 128 0 96 0C64 0 32 0 16 0L0 0Z" fill="#1b245e"></path><path d="M0 67L16 64.8C32 62.7 64 58.3 96 59.5C128 60.7 160 67.3 192 66.3C224 65.3 256 56.7 288 56.3C320 56 352 64 384 63.8C416 63.7 448 55.3 480 57C512 58.7 544 70.3 576 72C608 73.7 640 65.3 672 62.2C704 59 736 61 768 62.2C800 63.3 832 63.7 864 62.5C896 61.3 928 58.7 944 57.3L960 56L960 0L944 0C928 0 896 0 864 0C832 0 800 0 768 0C736 0 704 0 672 0C640 0 608 0 576 0C544 0 512 0 480 0C448 0 416 0 384 0C352 0 320 0 288 0C256 0 224 0 192 0C160 0 128 0 96 0C64 0 32 0 16 0L0 0Z" fill="#312e81"></path></svg>