<svg id="visual" viewBox="0 0 960 300" width="960" height="300" xmlns="http://www.w3.org/2000/svg" xmlns:xlink="http://www.w3.org/1999/xlink" version="1.1"><rect x="0" y="0" width="960" height="300" fill="#e5e5e5"></rect><path d="M0 161L137 237L274 140L411 257L549 211L686 193L823 216L960 144L960 0L823 0L686 0L549 0L411 0L274 0L137 0L0 0Z" fill="#ded0c3"></path><path d="M0 122L137 200L274 214L411 201L549 167L686 189L823 180L960 113L960 0L823 0L686 0L549 0L411 0L274 0L137 0L0 0Z" fill="#d9b4b1"></path><path d="M0 126L137 96L274 165L411 119L549 95L686 158L823 135L960 148L960 0L823 0L686 0L549 0L411 0L274 0L137 0L0 0Z" fill="#c59cb2"></path><path d="M0 104L137 54L274 65L411 82L549 77L686 102L823 61L960 57L960 0L823 0L686 0L549 0L411 0L274 0L137 0L0 0Z" fill="#958db9"></path><path d="M0 33L137 65L274 38L411 43L549 64L686 23L823 56L960 56L960 0L823 0L686 0L549 0L411 0L274 0L137 0L0 0Z" fill="#4385b0"></path></svg>