<svg id="visual" viewBox="0 0 960 300" width="960" height="300" xmlns="http://www.w3.org/2000/svg" xmlns:xlink="http://www.w3.org/1999/xlink" version="1.1"><path d="M0 64L120 64L120 61L240 61L240 97L360 97L360 109L480 109L480 82L600 82L600 43L720 43L720 97L840 97L840 88L960 88L960 94L960 0L960 0L840 0L840 0L720 0L720 0L600 0L600 0L480 0L480 0L360 0L360 0L240 0L240 0L120 0L120 0L0 0Z" fill="#d1c6c6"></path><path d="M0 85L120 85L120 94L240 94L240 148L360 148L360 142L480 142L480 109L600 109L600 70L720 70L720 148L840 148L840 127L960 127L960 130L960 92L960 86L840 86L840 95L720 95L720 41L600 41L600 80L480 80L480 107L360 107L360 95L240 95L240 59L120 59L120 62L0 62Z" fill="#c7afba"></path><path d="M0 118L120 118L120 127L240 127L240 184L360 184L360 172L480 172L480 139L600 139L600 118L720 118L720 196L840 196L840 175L960 175L960 160L960 128L960 125L840 125L840 146L720 146L720 68L600 68L600 107L480 107L480 140L360 140L360 146L240 146L240 92L120 92L120 83L0 83Z" fill="#b09cb8"></path><path d="M0 187L120 187L120 163L240 163L240 208L360 208L360 229L480 229L480 190L600 190L600 184L720 184L720 259L840 259L840 202L960 202L960 217L960 158L960 173L840 173L840 194L720 194L720 116L600 116L600 137L480 137L480 170L360 170L360 182L240 182L240 125L120 125L120 116L0 116Z" fill="#868fb8"></path><path d="M0 301L120 301L120 301L240 301L240 301L360 301L360 301L480 301L480 301L600 301L600 301L720 301L720 301L840 301L840 301L960 301L960 301L960 215L960 200L840 200L840 257L720 257L720 182L600 182L600 188L480 188L480 227L360 227L360 206L240 206L240 161L120 161L120 185L0 185Z" fill="#4385b0"></path></svg>